# https://github.com/mikedh/trimesh
v -4.56093645 3.15125895 10.98365974
v -1.28088975 -0.96068454 6.96357727
v -5.22140074 2.95860529 11.11971092
v -1.40068996 -0.85136449 6.99399900
v -18.34199715 4.54419708 29.43419266
v -1.42289138 -0.85232836 7.04383230
v -2.49313951 -0.97051930 8.63342762
v -13.81691170 42.67380524 0.30076933
v -4.25218534 -0.88168144 11.56026268
v -1.42128241 -2.31289792 6.22318983
v -4.95392084 -0.57722825 12.37563324
v -4.51367521 3.21329451 10.80452728
v -6.19175625 -0.49029857 15.15305233
v -2.52465320 -0.95436215 8.60862637
v -2.21632862 1.88923216 9.20286942
v -13.35987186 13.19154453 14.11105728
v -0.85859144 1.56513965 9.01816750
v -1.27482855 -0.97552502 6.99004316
v -3.77391028 -0.91975820 12.12097740
v -8.35415840 7.17036152 12.39144325
v -5.80102015 -0.13899705 14.40057373
v -4.05260658 -0.75987595 23.58833885
v -6.55124187 0.19423452 15.12354946
v -10.80035686 1.81307518 19.20669556
v -2.69850087 -0.90273380 8.52729797
v -7.93317461 0.61901909 15.69638348
v -31.40569305 37.97598648 19.53289604
v -2.49977756 -0.98986280 8.61484909
v -14.47894096 2.89340901 24.85557747
v -1.11925209 -0.83357018 5.08382511
v -8.33903408 7.19506788 12.36170578
v -0.79535055 1.62408412 8.83611202
v -29.38348961 31.89692879 17.01197243
v -4.26136732 -0.86568832 11.53823948
v -22.34718895 25.14841080 13.85891247
v -8.37621498 7.24367714 12.37534237
v -12.45985508 12.90645695 13.52455616
v -4.40344286 -1.71332252 11.74471569
v -4.54209661 -0.80531126 12.67676449
v -1.28327310 -0.58573008 5.06114340
v -5.76535416 -0.11255544 14.48450947
v -3.79825997 -1.36762929 23.85229492
v -0.88065290 1.55337214 9.00904655
v -2.49105525 -0.97059774 8.62864590
v -9.48277378 0.77288705 18.95368385
v -1.24680185 -0.63705289 5.09731245
v -14.01857662 -0.66439587 34.83319855
v -2.50793767 -0.95799237 8.61304855
v -2.29906511 -0.99621582 8.04080772
v -24.77651405 42.00695801 16.16617966
v -1.33229423 -0.63544208 5.07594967
v -2.21012354 1.89487398 9.20569515
v -22.10169411 24.72768402 12.27475452
v -5.83317709 -0.09614674 14.36309814
v -1.30205941 -0.58986551 5.09227848
v -31.42132568 16.43979836 18.03235245
v -1.18041229 -1.24136961 6.94033670
v -4.46803761 -0.86771423 11.40762138
v -7.73585510 0.60668594 15.85158157
v -9.85246086 2.38108397 25.55443001
v -4.70095968 -1.76647294 14.72187328
v -4.99348354 2.45783925 11.11057186
v -3.25624156 -0.90310162 9.73067093
v -2.51556349 -0.96667904 8.62048721
v -0.76157546 -1.03382993 4.67679501
v -25.32582283 30.86611557 17.88638115
v -2.33555150 5.44994211 8.97840500
v -0.79542786 1.62397838 8.83587646
v -1.22269917 -0.60141158 5.10731173
v -1.26971245 -0.89563400 6.66652822
v -8.30803204 7.41573334 11.96787548
v -13.32179546 13.72650623 13.20250797
v -2.37355280 -1.81028962 8.28693485
v -2.35814285 -0.90067875 7.81531477
v -6.15967607 -1.42087674 43.64820099
v -2.18248296 -2.16299605 8.49535084
v -3.93479252 -0.99162048 23.78133202
v -4.07638931 -0.97666752 23.87695122
v -1.77798319 -1.37035596 8.18245411
v -2.47499871 -0.96214098 8.63023949
v -3.46931434 -1.15053606 23.62887192
v -2.49235153 -0.98453742 8.61910534
v -13.42351532 13.16115856 14.14554691
v -0.30440935 -2.91517949 3.88104177
v -15.76036549 16.76874924 13.97391605
v -0.71826160 -1.09182644 4.46199036
v -1.26882708 -0.86209792 6.42795420
v -2.23056221 -1.80869591 8.39829826
v -2.36566138 -1.43151140 8.74907017
v -1.29042721 -0.94206083 7.02256680
v -3.55975509 -1.05875814 23.81203651
v -3.16721487 -0.91019887 10.22961426
v -1.21253550 -0.60890412 5.07190704
v -4.07881021 -1.71019220 11.92768002
v -5.22326326 2.95625710 11.13267231
v -2.59241629 -0.97654140 8.59770012
v -15.30878830 3.19519353 25.80550385
v -22.26963997 25.06109619 13.53784180
v -1.30338597 -0.94786775 7.09046459
v -9.52900887 1.34481514 18.46804047
v -7.82406712 1.28512311 16.55822182
v -12.67074299 13.09426403 13.04842567
v -13.10731411 13.52578640 13.77939606
v -1.00987601 -0.66515946 5.12083721
v -2.38482642 -0.95094591 8.01858330
v -12.63919640 13.05689621 12.91853142
v -4.95942783 2.45225430 11.09852886
v -2.54425216 -0.95157033 8.57501316
v -5.34676027 2.86963606 11.06069183
v -2.34338880 -0.89415205 8.06393719
v -3.78463984 -3.03618956 12.58874989
v -13.35996342 13.22547531 14.05967236
v -3.21609998 -0.93279332 10.36642170
v -1.25865579 -0.55503786 5.04543972
v -7.85507298 -0.18624209 16.62481880
v -2.45139527 -0.94554883 8.64327717
v -1.31907022 -0.58736515 5.09001970
v -5.75235033 -0.44177708 15.52200031
v -5.54925632 2.73966837 10.91754436
v -4.52133083 3.22040319 10.77860928
v -4.60214376 -0.83284926 11.52677345
v -17.21571732 42.07329941 7.86349773
v -9.05887127 1.14913857 17.48457336
v -4.28310156 -0.85853767 11.54093933
v -5.71030807 3.46629286 11.06449509
v -3.81110024 -0.92290986 11.54676914
v -15.36522579 3.22326231 25.95747185
v -6.38761425 2.32510042 13.33084202
v -16.85385132 17.37372208 12.64433002
v -12.71697712 14.15969753 13.51640415
v -8.38411331 7.27745152 12.40573978
v -1.32251608 -0.64454651 5.12316084
v -2.24315429 -1.81913519 8.37266350
v -15.17916298 4.76250362 25.12930489
v -2.40813994 -0.92853379 7.81998158
v -2.24356365 -2.44192147 23.80373192
v -2.16407847 -1.37586415 8.05928802
v -3.62061405 -1.31489539 23.81632805
v -3.80760598 -1.26959825 23.80444145
v -1.35613799 -0.93928468 7.48678350
v -11.17510700 1.84968531 30.11663246
v -1.25310636 -0.94216245 6.99115419
v -4.04543114 -0.74652618 23.60054970
v -21.25128555 9.21351910 16.01948547
v 1.26104367 -2.96110725 6.59906197
v -1.31996477 -0.58713382 5.09100676
v -8.65722847 6.99844503 12.21947193
v -5.01118279 -0.67875320 11.92946434
v -7.79773140 1.55041420 21.28363037
v -5.57963467 3.52946019 10.98890495
v -13.12760258 40.66840744 0.72461522
v -9.04424191 1.88039625 23.06802940
v -9.71803379 1.35597384 17.88031960
v -0.97474235 -0.78731823 5.10549974
v -2.18489003 1.87518287 9.35303688
v -1.41623330 -0.43090564 10.50372791
v -9.66307926 2.93608475 15.98886108
v -3.76127219 -3.02298498 12.56599617
v -4.33205032 -0.94638050 11.08584690
v -18.14732933 4.41886282 29.25469971
v -4.18106747 -0.80902117 12.32505226
v -3.45812011 -0.74782050 20.61882401
v -10.87110710 1.63746440 19.93758202
v -2.66546512 -0.90626568 8.56970978
v -15.25345898 3.48051119 25.58976555
v -34.02586746 9.05652905 35.40625000
v -1.87915707 -0.97010440 7.04897928
v -2.27865744 -1.03782177 8.04072952
v -7.85168505 -0.34501287 16.56404686
v -2.24166441 -1.00532532 8.06724644
v -2.36927152 -1.05644107 8.01664639
v -5.39686298 -0.82702154 15.11977100
v -1.39979446 -0.88757306 6.97923326
v -21.14985275 6.60140753 32.45714951
v -7.06936264 0.46251881 16.97972107
v -25.38368416 30.82780647 17.69470406
v -10.10769463 -0.48948112 24.22497177
v -4.25692892 -0.86839479 11.53419971
v -6.60938025 -0.76305538 14.91749477
v -5.22163916 2.33068562 10.92239094
v -4.34224367 -0.89237952 11.52942085
v -15.10208702 3.06302929 26.05015945
v -8.32052994 7.42958403 11.95199966
v -1.31652927 -0.93475187 6.98503685
v -8.37837029 7.24478960 12.37281132
v -6.24057484 -0.60739869 15.16638660
v -9.82757664 2.40395093 25.56890106
v -13.27178192 13.71529007 13.25543690
v -2.47480321 -0.96634543 8.61174774
v -1.24391747 -0.62345868 5.08477545
v -2.49125457 -0.97057116 8.63107109
v -1.36316609 -0.98186094 6.93242502
v -5.58757401 3.53372478 11.11835575
v -1.39983332 -0.90049314 6.97645521
v -9.50042629 1.11631000 26.09861946
v -4.94163227 -1.78760338 15.31691456
v -2.18811631 1.87227201 9.35629368
v -1.27487731 -0.97495133 6.98442984
v -1.24604785 -1.24066401 6.93810701
v -0.80674618 1.61701977 8.83640385
v -2.24288464 -1.81839037 8.37018490
v -2.45488572 -0.97642571 8.64559650
v -4.00298500 -1.01715004 24.66790771
v -2.23132610 -1.78907311 8.37063599
v -8.43806171 7.19110012 12.39985657
v -1.49150193 -0.35405007 10.93334866
v -10.10286522 -0.47963640 24.52764130
v -1.94554150 -2.27253366 8.63952446
v -3.49172044 -2.51321411 23.80555725
v -2.69714189 -0.90276235 8.52611732
v -15.25781250 4.87097692 25.01909637
v -1.43007040 -0.89474112 6.97034979
v -0.85423928 1.57184303 9.01756859
v -13.41297245 -0.68362778 33.46640778
v -12.59934044 13.11319828 12.98095894
v -1.34696877 -0.98984104 6.98040915
v -5.24649525 2.94486952 11.00591373
v -7.96158457 0.69533455 16.21557808
v -1.28192616 -0.97127497 6.98420477
v -2.52808475 -0.89413255 8.05286884
v -5.55156326 3.56020021 11.11796761
v -1.40859091 -0.88744503 6.97413206
v -13.89460945 2.93961215 24.01984215
v -2.43901277 -1.02958882 8.65165615
v -13.56671524 -0.64268243 33.90200043
v -24.01162720 27.58250999 17.12034607
v -2.44758177 -0.97836161 8.64391708
v -4.23391390 -1.50336611 11.79422760
v -5.77975655 -0.11160447 14.47109509
v -8.00963306 0.63116556 16.14732742
v -10.73980713 2.11681628 19.57795715
v -11.67395401 2.25750399 20.89545250
v -2.27803373 -1.82565224 8.35231495
v -26.43809128 7.76826620 35.96600723
v -4.28983402 -0.94437307 23.85135841
v -6.21850920 -0.09573980 14.92757511
v -3.95716381 -1.16748309 25.22064781
v -8.37359905 7.19717216 12.09501839
v -1.40744197 -0.87932622 6.99065018
v -10.37932777 2.48085332 25.58387375
v -2.30407333 -1.01377857 8.10692024
v -21.97099876 7.82432079 32.21610641
v -2.24370313 -0.98522091 8.05712414
v -25.03924179 30.33759499 17.59273529
v -1.02758539 -1.02300942 5.31623125
v -1.27761006 -0.60787320 5.09524679
v -2.24293780 -1.80916166 8.36539555
v 34.05225372 -0.43207416 -25.31848907
v -4.10305595 -1.04304385 10.90564442
v -35.34537125 27.49600792 19.59372902
v -5.93657589 3.31434989 10.88434887
v -9.70796585 2.45999932 25.53919601
v -22.87615776 24.00084877 10.35619831
v -1.33800423 -0.95875776 7.41390800
v -30.92501259 37.34692764 19.27471161
v -6.21823597 -0.14848554 14.95032883
v -5.94182062 -0.65384406 15.44765377
v -1.94237506 -2.27337265 8.63570023
v -2.49432492 -0.98970032 8.61864281
v -5.71585083 -0.95414233 14.88898087
v -11.88969707 -0.60795271 30.00924492
v -4.62707329 -0.83777428 12.83562183
v -8.36856842 7.25983572 12.42113209
v -4.55917645 3.15026784 10.99094677
v -18.66377449 0.05360049 42.88474655
v -2.49200201 -0.98513633 8.61741924
v -9.43274498 0.35126871 19.00936890
v -15.50916958 16.69286156 14.65081787
v -15.20309925 3.20654440 25.80036354
v -7.91588497 0.95099360 16.63894272
v -5.70741940 -0.66295362 14.75105095
v -1.02407193 -0.27160692 7.52610922
v -1.25187016 -0.61134708 5.10019684
v -2.23780513 -1.83067584 8.21993160
v -2.43224859 -1.75885582 8.24031067
v -2.38572502 -1.30155706 8.69333553
v -2.15174770 1.97779059 9.13255882
v -19.79404259 5.04143429 31.27257729
v -2.32364988 -0.34521627 10.05339909
v -5.69095659 -0.67271245 14.71432590
v -5.57261944 3.52898598 10.98772907
v -18.24601364 44.71247482 7.79605579
v -1.26768541 -0.94068408 6.98980093
v -15.79536819 5.07031822 25.10582924
v -1.36870956 -0.98737812 6.97641134
v -4.35847235 -1.46921492 11.67795944
v -15.11734962 -0.11890389 35.01474762
v -1.24399710 -0.63449794 5.09650517
v -0.12739114 -0.06474029 1.17707050
v -23.68308830 30.28653717 16.55324364
v -5.15466404 -0.71927279 13.84422016
v -2.32797027 5.45418930 8.97101402
v -4.28674316 -0.87537456 11.55432129
v -4.50671196 3.22712779 10.79192066
v -28.02503777 1.12143624 39.07393265
v -3.76137686 -3.02288961 12.56598568
v -10.27822399 2.49313855 25.53730392
v -12.54363251 13.20511627 12.98904610
v -9.55377769 1.38347459 18.50514603
v -16.13836098 3.91916490 25.27020836
v -4.20969629 -2.72716618 12.56134415
v -1.24184906 -0.56493485 5.10654593
v -5.49700403 3.55972266 10.90705204
v -0.84950739 1.57464004 9.01333237
v -20.68276215 8.71832085 15.96407795
v -2.23936558 -1.81989288 8.36779785
v -4.58848381 -0.80250174 13.58593941
v -0.14789459 -2.96628284 3.53734231
v -2.36509824 -1.80726635 8.29966545
v -1.42622650 -0.86045200 6.98200178
v -8.39905071 7.22449636 12.39967823
v -3.34277534 -0.49708530 17.27742195
v -15.29917240 4.85792017 25.04676437
v -4.40223837 3.23792815 11.16263390
v -4.71491051 -0.63982767 13.37489510
v -3.18357015 -2.45961189 23.86655998
v -2.18957114 -1.82140338 8.30709267
v -0.59362531 -2.71238112 4.56003571
v -2.48650885 -1.77100801 8.37631321
v -19.43774796 5.81458473 30.52397346
v -10.75182629 2.12418866 19.58987808
v -1.93808329 -0.92084008 7.11224461
v -5.11088753 2.45544457 11.34665489
v -25.09431076 7.44105864 37.24907303
v -8.22954082 0.72188336 15.93037701
v -15.30639553 4.83153200 24.84172249
v -5.49684572 3.55852008 10.90741348
v -22.40169907 25.25832558 13.82824993
v -29.78495026 35.73330307 19.07794952
v -1.65898156 -2.25049233 7.26814222
v -3.46655512 -1.16175807 23.87427902
v -34.24512863 0.93911129 47.01326752
v -15.52513885 4.82784986 24.71803474
v -1.34246659 -0.56937796 5.13045883
v -0.97973365 1.48054206 8.97054577
v -7.74861574 0.70388186 16.48284912
v -1.84704459 -0.98677915 7.15544319
v -2.49569988 -0.99244338 8.62018108
v -29.95376587 15.08781624 17.80337715
v -5.52016592 -0.95491278 32.43610001
v -5.83516121 -0.08140479 14.37654305
v -15.40422916 4.83818150 24.82981873
v -1.25369751 -0.93747324 6.92964983
v -2.43909311 -0.94856882 8.04501629
v -6.05837107 -0.83373278 16.53617859
v -3.78498149 -3.03631449 12.58902073
v -10.73507977 2.11788225 19.57029343
v -2.23003197 5.49382305 8.67373466
v -4.23373413 -1.31576216 23.62339592
v -3.78090143 -3.03219986 12.61617279
v -12.71200085 17.35245514 11.96884155
v -2.42412257 -0.94448960 7.99284506
v -3.51374340 -1.19575655 23.82584000
v -23.61513710 29.43300438 15.58673382
v -13.30141258 13.63873482 13.18043709
v -1.17582774 -0.80105346 5.08461857
v -2.24291754 -1.00529730 8.05811596
v -2.79046607 -2.72481108 23.97887802
v -7.21697760 0.22936261 14.67594337
v -0.85553569 1.57224703 8.99595547
v -2.27900481 -0.99889195 8.04357624
v -15.58050251 16.75378990 14.69884777
v -15.32407188 4.84915400 24.97872734
v -4.64367104 -0.55844897 13.30059433
v -8.31473446 7.42238903 11.96132469
v -8.31154919 0.76918966 16.64445877
v -4.96141195 2.45905185 11.09671021
v -1.25448084 -0.59600759 5.06926441
v -15.02229214 3.66451645 25.40424728
v -9.45833492 1.35899460 18.53741646
v -16.41390419 -0.09149037 37.71631622
v -1.04123509 -0.82603109 5.09557867
v -5.22228527 2.95938468 11.11977386
v -2.24076104 -0.97346061 8.02804375
v -1.27462018 -0.97380328 6.98935318
v -16.84062576 17.08122253 12.85275269
v -12.72478580 13.14472580 12.93679523
v -15.32394218 4.85957766 24.87294197
v -8.00859833 0.63158232 16.14123726
v -10.38266563 2.45007825 25.29024315
v -5.71774817 -0.89687252 14.84546375
v -4.40321159 3.24092269 11.16478443
v -1.43426752 -0.86983478 7.07080984
v -9.61844730 1.22883630 17.75780487
v -3.32039356 -0.49107549 17.11122513
v -4.44588614 -0.47200593 13.45276356
v -4.24969053 -0.86649728 11.54544353
v -2.10467005 -1.93096399 7.64525509
v -3.95642805 -0.90956163 12.03487110
v -5.57011461 -0.21927489 14.07756233
v -4.48025179 -0.88976341 24.48472023
v -33.51870728 8.68845367 34.74657822
v -5.72767401 -0.09426687 14.45749474
v -23.20023155 39.07994080 15.80810642
v -8.22445202 7.32455254 11.94214821
v -16.09730911 -0.63299233 39.58504105
v -4.34950399 -1.47225487 11.66505241
v -9.42767715 1.07922471 25.95384216
v -15.15561676 4.79204035 24.80787849
v -2.35012364 -1.83780646 8.14308262
v -8.31702518 2.20718217 15.65682220
v -8.36833096 7.19124031 12.09441090
v -2.29218435 -1.03670728 8.04691887
v -2.18883204 1.87240911 9.35935879
v -8.68778992 -1.15183556 27.34567451
v -3.14144254 -2.43405104 23.72623825
v -12.67089653 13.09088516 12.93325806
v -8.32776737 7.18009377 12.35684586
v -13.17654896 13.56890297 13.80227375
v -8.29790497 7.40089273 11.96872330
v -2.48693633 -0.98520178 8.62060547
v -2.47234035 -0.96671087 8.61809254
v -10.58297729 2.73814034 25.32282448
v -12.67886925 13.09915733 12.93340015
v -7.25301218 -0.45903078 17.03745079
v -2.43327928 -1.84437633 8.25758648
v -5.79565001 -0.12752776 14.39999580
v -4.69533730 -0.79971963 13.87143135
v -2.22982836 -1.81109345 8.37213421
v -5.68777275 -0.67462373 14.70940685
v -2.03673482 -1.29810393 8.84192562
v -22.12575150 25.00917816 13.63918400
v -15.19919109 4.78626394 24.89334869
v -8.12847900 0.63658661 16.05748177
v -2.21098709 1.89761961 9.20618629
v -1.28705752 -0.94214731 6.80629969
v -2.49918413 -0.95808321 8.60975170
v -26.37105179 30.96171761 17.85140610
v -5.78314114 -0.10250930 14.40131092
v -6.34280777 -0.55656254 15.05655098
v -5.18798399 2.99501991 10.93399048
v -12.62772465 12.53199673 13.77508450
v -3.67339849 -1.02666199 11.95123959
v -8.06994629 0.70272797 16.07190323
v -4.10038233 -1.68114829 11.90674210
v -4.04564476 -0.82694906 22.99868202
v -24.00630188 29.93277168 15.68999577
v -0.84815425 1.57276487 9.01348972
v -2.32761836 -1.43383241 8.75386810
v -9.06042957 0.52160931 19.35533333
v -29.11912537 14.65588474 17.56956291
v -4.13310957 -2.72620273 12.68531036
v -2.25989246 -1.39670682 8.03732109
v -8.64689255 7.18340540 11.51951885
v -4.08228159 -0.74509960 23.49134064
v -10.55161095 2.31031871 19.78274918
v -2.66206694 -0.90711713 8.55020618
v -2.46933055 -0.90593427 8.68128204
v -4.13669443 -2.72720456 12.68199444
v -3.63728976 -1.30827641 23.73954773
v -4.18981171 -1.42437530 11.76523399
v -9.54111767 1.36695731 18.51069260
v -4.17167854 -2.77896452 23.75225830
v -1.33477628 -0.85879254 6.98716354
v -2.48267817 -0.97208810 8.63351727
v -23.86424828 30.05753326 15.56423473
v -4.33427811 -0.89289659 11.52827549
v -3.80348969 -3.05293202 12.52279758
v -7.91822720 0.95229083 16.64180374
v -8.63633919 7.17077541 11.51805592
v -2.48583269 -0.89592427 8.30771542
v -8.39767456 7.24871206 12.43353367
v -3.46723914 -0.81513238 10.35611725
v -2.43238425 -1.05286705 8.03492641
v -1.42967248 -0.89460230 6.96749210
v -4.08238602 -1.69563246 11.89980984
v -14.16176701 3.00734067 23.74054909
v -4.52015877 -0.93241012 11.37945366
v -1.27941346 -0.97797525 6.99116278
v -2.34798217 5.45036554 8.77527523
v -7.66134310 -0.64156932 16.73073769
v -7.99372768 0.64592487 16.14849854
v -2.14783263 1.98524475 9.13006878
v -9.81860733 2.39108467 25.53912926
v -29.61175346 35.49713516 18.99854279
v -12.32509899 32.97055054 3.43713140
v -4.51162052 3.22028160 10.77989483
v -8.00233364 0.62244231 16.12321854
v -3.78799605 -3.03690052 12.61923313
v -22.48207474 25.30192375 13.88633919
v -7.88418341 0.71282250 16.20877075
v -2.36765194 -1.43081760 8.75160980
v -3.59855986 -1.39540958 12.10305500
v -4.24830437 -0.84787375 11.55778885
v -3.49897456 -0.81402349 22.95428085
v -13.90068722 2.93552589 24.12808800
v -1.42680097 -0.98025090 6.97189617
v -10.02613258 2.70796061 20.04117012
v -16.17852402 6.19970226 40.86117172
v -4.13651371 -2.73048830 12.68440342
v -4.88219786 -1.41435039 13.25280857
v -1.15167189 -0.96012717 5.59770823
v -7.90143204 0.68462318 16.21757698
v -14.44177914 3.32426095 26.28265381
v -9.68232727 2.24020505 25.81578255
v -0.85501343 1.57203102 8.99536705
v -4.61214733 -0.83301502 11.51069927
v -5.74062204 -0.10370349 14.47301102
v -8.47784901 0.84169555 16.36639023
v -2.61148381 -0.97373670 8.57390976
v -4.47263288 -2.39625978 41.59067535
v -1.43022311 -0.89203632 6.93159008
v -8.00800037 0.69998986 16.16074944
v -3.67779350 -1.25585175 12.18117332
v -12.14692783 36.09856796 1.96536863
v -2.43862391 -1.84200239 8.26438332
v -1.33308125 -0.56770134 5.07366896
v -1.21328115 -0.97613990 6.99320173
v -2.51827121 -0.98961097 8.59366798
v -3.76132441 -3.02292871 12.56590176
v -2.27541137 -1.46717370 8.04341984
v -7.21345186 0.38306984 15.62599850
v -15.05854702 3.68054223 25.47333145
v -1.28715825 -0.59984589 5.15120077
v -10.73178959 2.95327044 27.48492050
v -8.10349941 -0.56891930 20.18022156
v -15.01799393 3.65289068 25.38959694
v -2.52439713 -0.93890440 8.61688614
v -8.39380074 7.24206924 12.43265438
v -1.28600883 -0.86598831 7.00845861
v -15.24942493 4.83547974 25.03600693
v -3.81300831 -3.05567169 12.60397625
v -5.79159164 -0.12700869 14.41450977
v -4.08535862 -1.34097314 23.66174316
v -2.49451900 -0.94358647 8.61634922
v -4.31895971 -0.88341737 11.52481270
v -1.27551985 -0.64203513 5.08915138
v -19.52805519 -0.20661969 47.63513184
v -2.49690485 -0.95767379 8.63980389
v -4.54191828 -0.86163592 11.34023190
v -15.57442379 17.30698967 13.60453892
v -5.18043995 2.33841467 10.87686634
v -4.93464756 -1.97315001 34.59287643
v -9.42647266 0.36604133 18.98151970
v -2.41241241 -0.91352570 7.98032188
v -8.21194935 7.30748844 11.93984509
v -8.13472843 -2.23358107 21.54117393
v -32.25493622 9.67214108 43.79837036
v -12.67704391 13.20154667 13.01075649
v -15.88001728 5.26231670 25.66105652
v -3.86977410 -0.82582170 11.85129642
v -15.28854656 3.14755249 25.99179649
v -12.91948509 2.62456441 34.30889893
v -3.76726103 -3.02598953 12.56964397
v -4.66203165 -1.74369466 14.61610794
v -12.62585258 13.06365585 13.06243801
v -15.57810307 4.04873419 25.19186783
v -18.65527153 4.52520609 27.22290039
v -14.47360516 3.52244258 26.24544525
v -25.31867027 30.86075401 17.87629700
v -20.66529274 1.87132740 30.16100121
v -16.48193169 4.56850433 21.46495819
v -5.83887768 -0.85027552 15.67105198
v -2.32566881 5.45201540 8.95703793
v -5.33401775 2.90109277 10.75492096
v -13.86967659 2.94893122 24.12229729
v -8.32041645 7.43049717 11.95202923
v -7.96720123 0.65759593 16.16908455
v -3.64996457 -0.77645904 22.04752159
v -2.64623857 -0.96746498 8.53039932
v -4.40539026 -0.81259274 11.64799309
v -5.78833389 -0.12916245 14.40805054
v -22.94025612 6.55545998 32.05895996
v -1.22282934 -0.61557186 5.10498047
v -4.25254679 -0.84753609 11.55068207
v -5.95913696 -0.64669061 15.46866417
v -2.45052886 -0.92673910 8.51286030
v -1.32215500 -0.57136756 5.08704519
v -5.78451586 -0.12226513 14.29435730
v -2.21279049 -1.84430420 8.40559387
v -1.91694212 -1.38338315 8.14836979
v -5.79466820 -0.09245903 14.36794186
v -26.36084366 30.59232140 17.79741096
v -8.03468609 0.64060712 16.17588234
v -0.85404903 1.57137752 8.99516964
v -4.49187851 3.23577261 10.79045010
v -3.12437105 -1.35554945 9.69025135
v -4.18183184 -1.42031825 11.78559113
v -15.31156254 4.94383526 24.96084976
v -31.10305595 0.92837375 42.86040497
v -7.86065722 0.69572860 16.22861862
v -7.78488111 1.02003682 16.70103073
v -4.66255903 -1.66990268 11.52035236
v -4.56704092 3.14423251 10.99501705
v -15.65024948 17.50499153 13.60204697
v -22.39850426 25.02238274 13.57754040
v -12.94182301 -0.49089867 32.79875946
v -6.17715502 -0.94634235 14.44152737
v -8.18276787 7.32642794 11.90264702
v -5.73069239 -0.10239993 14.43394089
v -9.12508583 -0.46074817 22.07586861
v -4.31652403 -0.88540900 11.52034569
v -25.65574837 30.24293900 17.79783058
v -10.82694435 1.84091282 19.43477631
v -1.30178344 -0.58928216 5.09231806
v -7.63822269 0.48477343 15.47799778
v -10.73644638 2.10022736 19.58632851
v -1.24083698 -0.63210982 5.09747076
v -2.34733415 -1.82241809 8.30897141
v -7.65146446 -0.62275678 16.76439285
v -2.37892246 -1.30415010 8.69271946
v -2.24371290 5.49798965 8.67823315
v -12.62191200 13.13578033 13.02606678
v -13.24498558 13.58495998 13.28543377
v -3.78147388 -3.03228998 12.62148094
v -7.63858938 0.77188778 15.99955940
v -2.24644494 -1.00799060 8.08116722
v -0.73444378 -1.03464735 4.63235617
v -3.63066602 -1.11215472 23.16068840
v -1.94546402 -2.27204776 8.64230347
v -7.40869045 -1.78754056 20.78524780
v -2.64734674 -0.88662267 8.68816185
v -1.41259241 -0.88221210 6.98145771
v -8.06208706 0.70564407 16.09669113
v -9.68391609 0.67257881 18.81322861
v -1.26606655 -0.63325697 5.09158611
v -2.11445761 -1.94835758 7.82287836
v -8.84565735 -0.67516094 23.55425072
v -4.47701120 -0.86743104 11.39102173
v -6.26142216 -0.72603518 15.24617672
v -0.93595541 1.53752744 8.69935894
v -2.51277184 -1.71653306 8.37708092
v -4.21996403 -1.68241239 13.53944302
v -5.34758949 2.87057710 11.06055927
v -4.16394520 -1.68191993 11.87984276
v -0.44441473 -0.15551969 4.10391331
v -9.84379482 2.36234808 25.50493622
v -1.24808586 -0.63456029 5.09331942
v -4.66939640 -1.66867888 11.52964401
v -2.28775239 -1.79188442 7.97268438
v -4.12070417 -0.93546432 23.74085045
v -11.96312332 2.27334332 21.88885498
v -1.31358051 -0.98341888 7.11054659
v -2.28937840 -1.04805839 8.04196739
v -9.45536327 1.34380782 18.56105614
v -5.18588924 2.99217510 10.93479633
v -24.03353500 40.63713455 16.09435272
v -2.11213303 -2.34234023 8.58370113
v -2.16266966 -1.37365365 8.05740452
v -24.08855057 40.88493347 16.06337738
v -1.09884620 -1.29137731 6.92878485
v -1.08337522 -1.28270578 6.87956285
v -8.37994766 7.13552237 12.39043522
v -4.26641417 -0.81116813 11.55810928
v -2.21068335 1.89734519 9.20599079
v -1.37218773 -0.90461469 6.98304272
v -2.46879077 -1.72414374 8.32456207
v -8.69978142 0.94782412 16.72440910
v -24.01436615 30.03785133 15.68933296
v -24.10930061 40.75965881 16.12208939
v -2.38284898 -1.80947852 8.28247452
v -1.31233442 -0.96689779 6.96022415
v -10.09820843 2.36587596 25.09435844
v -15.32052422 4.86043024 25.02729416
v -22.55508041 25.11780548 13.72838879
v -4.56146669 -0.85767001 11.33095264
v -2.48175216 -0.97222412 8.62571239
v -7.65072155 -0.61843777 16.76285362
v -3.57144427 -0.74241942 21.33783913
v -7.97885752 0.63197356 16.13291168
v -9.43231487 0.36879212 18.98598671
v -2.49081111 -0.98731703 8.62438202
v -2.70055604 -1.63088453 8.92783165
v -14.90095997 3.10696483 23.06457520
v -15.57580376 17.47797585 13.59617424
v -1.44118214 -0.89447427 6.97773075
v -8.00217915 0.64944261 16.15786934
v -29.73970604 15.26244164 17.69744682
v -1.44514775 -0.85259110 7.08720064
v -2.48521447 -0.96024913 8.62951374
v -9.32289696 0.57658690 26.53294945
v -2.45273805 -0.93976808 7.99751091
v -1.22096169 -0.95539916 6.99253893
v -4.32789707 -0.88733965 11.53123093
v -1.36093092 -0.56655622 5.06397486
v -23.72276878 7.04517746 34.00347900
v -2.27451634 -1.74237955 8.49914551
v -19.60737228 23.73768425 14.55556107
v -35.68443298 27.61985016 19.63455391
v -13.37149525 40.74342728 0.71018243
v -2.24973655 -0.99565572 7.97317886
v -2.25772142 -1.38457465 8.02637577
v -9.89541340 2.40277195 25.65503311
v -2.45746040 -0.97693676 8.63928509
v -1.28615677 -0.97862494 6.98794317
v -4.13173103 -2.72816300 12.68931961
v -2.42821431 -0.89399934 8.25623989
v -1.78262913 -0.45267719 12.68315887
v -9.10408306 2.82354569 15.61432552
v -3.78828979 -3.03672791 12.61942005
v -1.31707990 -0.97930282 7.04468250
v -3.32817626 -1.30394971 23.87142944
v -9.35458374 0.53675097 26.78884125
v -5.95150375 -0.65134108 15.45651150
v -1.40266800 -0.87933213 6.96603012
v -1.38654137 -0.88891751 6.98854399
v -4.13890505 -0.96677846 23.74047089
v -4.18136835 -1.63328350 11.84892273
v -15.34639454 4.85244131 24.95819664
v -13.10983276 39.62363434 1.13412964
v -22.38972473 25.18885803 13.84129238
v -4.14901686 -0.87003237 22.71907043
v -28.00329590 33.11613846 17.06534195
v -14.97425842 -0.42922580 37.83915710
v -10.66074371 2.74915910 25.28594780
v -25.26167870 30.59090996 17.86744118
v -2.54161835 -0.89906788 8.07583332
v -8.32760811 7.44055557 11.95395756
v -0.95544273 -1.27603722 6.92760372
v -5.55724335 3.56324387 11.13259888
v -7.90446949 0.65649313 16.24930763
v -5.07589054 2.47490048 11.33524799
v -5.70852804 -0.12167560 14.33211517
v -15.15948677 3.11415935 26.07699013
v -3.52915955 -0.83634961 23.71062279
v -2.35104012 5.45434809 8.77574635
v -9.85915852 -2.53521752 26.45283699
v -4.44782925 -0.77481806 25.55861473
v -4.55822754 3.15767360 10.97952461
v -9.42815304 1.09131837 25.98455429
v -2.22717667 -0.99421817 7.92822933
v -4.13204813 -2.72663999 12.68789673
v -4.03054523 -1.18856418 25.93396950
v -1.30664456 -0.63803232 5.08145905
v -0.90414721 -1.02287281 6.99684477
v -8.90475368 -0.73878264 23.51407814
v -2.53885603 -0.95091492 8.60658836
v -10.70987892 2.16798091 19.61319542
v -3.30445027 -0.67741996 17.66058540
v -1.42954445 -0.89451885 6.96736336
v -6.24520588 -0.72291780 15.22843552
v -1.31620646 -0.58316219 5.08953333
v -1.37902606 -0.85074115 6.95074224
v -2.40074134 -0.92510408 7.96911955
v -22.12570381 24.89751816 13.50274754
v -3.47188854 -1.15341818 23.66677666
v -8.35700893 7.16950893 12.38685322
v -16.41749573 16.20805359 14.09291935
v -4.26040220 -0.84442163 11.56386280
v -1.33273733 -0.99144953 6.98477840
v -17.47769928 42.79792023 7.84601450
v -3.61150098 -1.20316350 33.22021866
v -4.51557016 3.21612120 10.80429268
v -15.46449089 3.55823946 25.26514435
v -0.88001943 1.55111241 9.00930786
v -5.44205093 -0.92423660 32.05709839
v -3.01345682 -0.84066850 9.34868431
v -2.35113430 5.45098829 8.77604771
v -8.02767086 0.62364614 16.14842224
v -9.41313457 -0.72975051 24.83134079
v -5.69395447 -0.16724530 14.17613316
v -2.69078970 -0.90281188 8.53545094
v -2.18560767 1.87363541 9.35434341
v -4.39652348 -0.90869230 11.24098396
v -2.23643088 -1.81148326 8.22070694
v -10.25215530 2.32854605 25.44242859
v -2.34456134 -1.00032520 8.12955189
v -1.26698673 -0.96028095 7.08464003
v -4.56729412 3.14423728 10.99535370
v -4.27570152 -0.87482864 11.56615734
v -22.77752304 6.66512251 32.75154114
v -9.64624691 -2.03688955 26.25364876
v -26.29584885 28.58296585 16.94304848
v -4.96127319 2.45814633 11.09690094
v -9.51464939 1.11980522 26.12629700
v -1.68176556 -2.15535426 6.75846338
v -1.22066832 -0.95646632 6.99845743
v -2.28650904 -1.87501287 8.03561878
v -3.70891619 -1.36745501 23.84652519
v -2.21344185 -1.83618093 8.16040230
v -25.65191460 29.34280777 14.08915997
v -4.12253952 -1.33203411 23.69582939
v -8.83899975 1.03344500 17.12351608
v -10.70926476 2.74355078 25.17138481
v -1.30759633 -0.58842880 5.09128475
v -2.64633703 -0.92711210 8.70492649
v -13.21241856 39.91915894 1.02654219
v -13.37409973 13.20955563 14.07170105
v -15.33550835 4.83871365 24.76580620
v -4.16293526 -0.69934881 22.69665146
v -5.36361694 2.86042523 11.02583504
v -2.34588003 5.44415522 8.97904015
v -8.22345257 7.32549286 11.92251396
v -25.28093719 30.80307579 17.86465836
v -3.49617243 -0.78457123 22.08656311
v -2.61051154 -0.96696967 8.55268574
v -2.41734862 -0.93317002 7.94655848
v -2.40227795 -1.80218494 8.35416794
v -9.92587662 1.03795946 25.95644951
v -1.27396524 -0.97661865 6.98824120
v -10.48097229 1.80570340 19.80615044
v -3.51652980 -2.51669407 23.91266632
v -2.25918269 -1.81669593 8.36113644
v -4.14943361 -1.68684459 11.86141872
v -1.43358493 -0.45196772 12.83026600
v -4.34767628 -0.89147943 11.52215004
v -1.28128409 -0.97888005 6.98926449
v -26.82748795 6.99745131 29.58800125
v -1.44004333 -0.90333831 7.06576681
v -2.53325152 -0.98372215 8.58287430
v -2.34624815 5.44235706 8.98067665
v -1.14625895 -1.02626145 5.50758076
v -9.80797768 1.50871122 18.67300797
v -2.50487256 -0.93921667 8.61817837
v -1.24550223 -0.92097348 6.99479055
v -2.25108862 -1.81870115 8.36480236
v -3.72479129 -1.13018334 23.76657104
v -28.55126190 14.31346321 17.46285439
v -2.39240432 -0.89986849 8.18862724
v -0.85421568 1.57176578 9.02058029
v -9.88193226 2.38082552 25.58083534
v -2.57146811 -0.97905135 8.61564827
v -1.44138241 -0.89445531 6.98292923
v -4.51547480 -0.59264672 12.57696915
v -9.47259235 0.59613925 18.90416145
v -0.85443574 1.57184076 9.02070618
v -25.15586090 11.89671803 16.78544235
v -9.60983562 1.24099064 17.87660599
v -2.18623972 -2.16344976 8.50131035
v -2.25421405 -0.97641301 8.06676102
v -2.51252270 -0.96656942 8.60466099
v -23.85237694 24.02367020 13.25285625
v -4.13201857 -2.72796583 12.68944550
v -5.71488667 -0.12453143 14.48381996
v -0.86243170 1.57822502 8.89757729
v -8.02688217 0.65084177 16.15714073
v -1.40007699 -0.89977503 6.97125530
v -5.22615242 2.94846225 11.12986565
v -7.73225069 -0.60110742 16.68947029
v -1.24116087 -0.63421851 5.09760809
v -2.59465480 -0.97052145 8.52243710
v -13.28821659 13.63845921 13.30295563
v -0.85471177 1.57162881 8.99564648
v -13.88882160 2.94200635 24.02083397
v -4.75979137 -1.47802138 13.11588764
v -2.52986145 -0.95221877 8.61049652
v -1.39020622 -0.85195446 6.99891710
v -5.69956017 -0.12018509 14.36879349
v -10.51455879 1.88515890 19.80705643
v -14.89193058 3.10466099 23.05381393
v -15.31570816 3.53763771 25.67561722
v -13.23000431 13.81522369 13.26693535
v -15.34904194 4.82191944 24.85654640
v -8.32525826 7.17601109 12.35405254
v -12.59829426 -0.50344330 31.89103699
v -13.15933704 13.60170269 13.82472992
v -8.03728390 0.65590340 16.17754555
v -3.55487943 -1.14693761 23.77508354
v -1.24443340 -0.63589221 5.09776831
v -2.45281529 -0.97779018 8.64664555
v -9.74871826 2.46722555 25.80982399
v -1.04596758 -0.79522669 5.09947586
v -9.33676815 0.30653247 19.09127426
v -5.24589252 2.39136100 11.26483059
v -2.49165797 5.41309643 8.43608665
v -2.48525071 -0.97071898 8.63225746
v -1.17568195 -0.80063027 5.08495760
v -2.44893813 -0.97850496 8.64834595
v -29.81947708 15.20139027 17.71641922
v -2.33064032 -1.82389796 8.31886673
v -14.42492104 3.31095791 26.25286865
v -25.29442406 30.75879860 17.91538239
v -1.21959341 -0.61555225 5.10350227
v -2.33835888 5.45167208 8.94057560
v -5.71874285 3.44968915 11.00912857
v -5.47316790 3.56768465 10.89143372
v -5.17898941 2.33618855 10.87651920
v -5.36503220 2.86161900 11.02544594
v -9.52324772 2.21987700 24.79372787
v -0.86063731 1.57683778 8.89758778
v -13.18173504 13.57305813 13.80562305
v -4.13370180 -2.72975516 12.68862152
v -5.74147034 -0.91720492 14.88172340
v -2.05934715 -0.61505735 15.62104034
v -2.26413083 -1.00274432 8.05885220
v -2.12095928 -2.33312631 8.57422733
v -4.37529469 -0.90876037 11.27093506
v -15.55638885 17.27766228 13.64962578
v -1.36163688 -0.58194357 10.07423782
v -0.80972630 1.61496043 8.83563900
v -7.70371628 -1.81772947 21.49643517
v -7.58068514 -0.57848340 18.86612511
v -5.72440290 -0.09564720 14.41853523
v -8.96618462 0.89400613 16.46153450
v -10.78903389 2.77052903 25.22526360
v -4.55863762 3.15773726 10.97923660
v -3.84607744 -1.36875963 23.80724525
v -8.30719185 7.18426085 12.38130283
v -0.79742056 1.62303269 8.83615303
v -9.41086864 0.30629849 19.03046036
v -1.39566493 -0.89359856 6.97539711
v -2.64361405 -0.96770370 8.56029034
v -1.25080967 -0.92037976 6.98911428
v -5.77359676 -0.11939202 14.42778301
v -6.38409519 -0.44844002 14.74880600
v -3.44466448 -1.16632712 23.87588310
v -3.83718228 -1.37033999 23.75740433
v -15.23567104 3.06626248 25.94467163
v -13.85385799 2.95042419 24.08690071
v -4.40872812 -0.80783737 23.85673904
v -18.05641556 -0.28216526 44.57546234
v -5.18128920 2.34080648 10.87428761
v -5.69681978 3.45763612 11.04975510
v -1.38100433 -0.90171558 6.97354412
v -8.13837910 0.71183503 16.03544617
v -2.03710842 -1.29786968 8.84037781
v -1.24120450 -0.63246900 5.09785843
v -9.49443531 0.77792019 18.96706772
v -25.30093575 9.63519001 35.64869308
v -3.76636815 -3.02579761 12.57009602
v -15.76995754 16.76122284 13.94473648
v 0.15002304 1.86962390 7.15066338
v -1.28024912 -0.97484142 6.98784113
v -7.93284512 0.91855156 16.64978981
v -1.37355757 -0.90346783 6.98648405
v -16.33316803 -0.35278469 40.76399612
v -7.95509481 0.92362928 16.63012886
v -7.96970272 1.11086714 26.51207542
v -9.84547615 2.58455181 25.61012268
v -4.15664816 -2.72402048 12.64786434
v -7.69629097 -0.61026514 16.82464981
v -15.49566555 16.55944824 14.65682125
v -7.67758322 0.68176764 16.50565910
v -1.25683081 -0.61005074 5.09665918
v -16.06222534 -0.10510845 36.94488144
v -15.12157345 3.16961551 25.59605026
v -13.49340153 2.79210615 21.96625328
v -2.24044323 -1.01834297 8.06742287
v -0.79147017 1.62637997 8.83165073
v -2.61541510 -0.91428506 8.57410812
v -13.31550789 13.61696911 13.24989033
v -5.74779129 -0.89463842 14.86276150
v -24.91179276 29.10694122 17.54338837
v -13.13848591 3.32643676 24.20500183
v -8.31209564 7.42240429 11.97196579
v -3.60205483 -1.29378760 23.73751831
v -13.36005974 13.19819832 14.11270237
v -5.57103348 3.52782631 10.98776340
v -2.48999095 -1.33361828 8.67314529
v -1.34011686 -0.98988712 6.98230553
v -15.48174858 16.54421806 14.65153217
v -5.87148428 -0.74459636 14.61945248
v -2.18643856 1.88158977 9.34136105
v -9.53785133 1.36517453 18.50727081
v -12.70942116 13.08715534 13.00168610
v -2.07041359 -1.46988726 8.11744404
v -14.48102570 2.70155644 24.05008316
v -8.01975727 0.67641437 16.18513489
v -2.16655684 -2.32464337 8.55846310
v -3.75790501 -3.02090001 12.56521702
v -2.62215042 -1.00035894 8.56036568
v -6.34905291 -0.55657870 15.06605434
v -1.33306968 -0.58010995 5.08319855
v -1.95714366 -1.97720003 7.57233381
v -7.73616600 0.59702402 15.89796162
v -5.66732931 -0.68165940 14.68949223
v -9.52066040 -0.43392783 22.89842796
v -3.78095055 -3.03212070 12.61603165
v -13.32736206 13.67313099 13.19815731
v -4.23461390 -0.95650923 23.81505203
v -7.90617323 0.70000994 16.23794365
v -4.29143000 -0.94508809 23.85121346
v -18.36649704 4.57229376 29.44111061
v -9.49885368 0.63565707 26.53172684
v -1.42010438 -0.89753658 6.97539711
v -1.25284743 -0.94304478 6.99106216
v -2.62164831 -0.91541713 8.56735611
v -5.85115480 -0.06096409 14.46535873
v -7.81195450 -0.20362508 16.56760406
v -4.51959324 3.21692967 10.77934456
v -2.51289082 -0.96627855 8.60535717
v -4.24254847 -0.87977773 11.58824444
v -3.48100424 -1.10586774 22.62657547
v -2.23120546 -1.78983068 8.37082291
v -1.28093469 -0.98021024 6.98464203
v -2.41398501 -0.93621778 7.98424244
v -4.56691265 3.14401507 10.99493980
v -15.65984535 17.51497459 13.60765743
v -15.10867786 3.70802712 25.49567604
v -15.02935505 3.67135310 25.44203568
v -1.39854825 -0.88464123 6.93114614
v -4.14496899 -2.68408871 12.61968803
v -1.22631490 -0.79997230 5.07474804
v -2.38639283 -1.30162048 8.69541454
v -12.65355301 12.42411041 13.84614754
v -3.18920112 -1.52040172 11.56517982
v -7.91404724 0.61343062 15.71732330
v -8.90304089 18.51056480 7.11389780
v -8.37802887 7.24186611 12.37319756
v -1.24674296 -0.94532782 6.99696636
v -3.81228971 -0.76253259 22.74689484
v -4.31565237 -0.88475591 11.52019119
v -3.47493267 -1.16548133 23.93603516
v -2.84061480 -0.88716286 17.34325218
v -15.08316708 39.31029129 2.21122241
v -10.61842251 2.82655525 27.19690704
v -8.67192745 6.98157215 12.25756073
v -1.29941678 -0.64006895 5.08348989
v -2.88087797 -1.45876479 9.53042412
v -2.49261522 -0.95853502 8.62929821

